{
  "accessors": [
    {
      "name": "Knight__ncl1_29.002-Mesh_0_positions",
      "componentType": 5126,
      "count": 880,
      "min": [
        -1.0998890399932861,
        0.6649609804153442,
        -0.7791270017623901
      ],
      "max": [
        1.1131290197372437,
        4.0154900550842285,
        0.33456501364707947
      ],
      "type": "VEC3",
      "bufferView": 0,
      "byteOffset": 0
    },
    {
      "name": "Knight__ncl1_29.002-Mesh_0_normals",
      "componentType": 5126,
      "count": 880,
      "min": [
        -0.9946226477622986,
        -0.9941802620887756,
        -0.9978527426719666
      ],
      "max": [
        0.9940536022186279,
        0.998173177242279,
        0.997945249080658
      ],
      "type": "VEC3",
      "bufferView": 1,
      "byteOffset": 0
    },
    {
      "name": "Knight__ncl1_29.002-Mesh_0_texcoords",
      "componentType": 5126,
      "count": 880,
      "min": [
        0,
        1
      ],
      "max": [
        0,
        1
      ],
      "type": "VEC2",
      "bufferView": 2,
      "byteOffset": 0
    },
    {
      "name": "Knight__ncl1_29.002-Mesh_0_indices",
      "componentType": 5123,
      "count": 1194,
      "min": [
        0
      ],
      "max": [
        879
      ],
      "type": "SCALAR",
      "bufferView": 3,
      "byteOffset": 0
    },
    {
      "name": "Knight__ncl1_29.002-Mesh_1_positions",
      "componentType": 5126,
      "count": 940,
      "min": [
        -1.0815919637680054,
        0.9674999713897705,
        -0.7743380069732666
      ],
      "max": [
        1.110435962677002,
        5.584167003631592,
        0.5862269997596741
      ],
      "type": "VEC3",
      "bufferView": 0,
      "byteOffset": 10560
    },
    {
      "name": "Knight__ncl1_29.002-Mesh_1_normals",
      "componentType": 5126,
      "count": 940,
      "min": [
        -0.9994652271270752,
        -0.9942172765731812,
        -0.9942252039909363
      ],
      "max": [
        0.9993032217025757,
        0.9872872829437256,
        0.9823399186134338
      ],
      "type": "VEC3",
      "bufferView": 1,
      "byteOffset": 10560
    },
    {
      "name": "Knight__ncl1_29.002-Mesh_1_texcoords",
      "componentType": 5126,
      "count": 940,
      "min": [
        0,
        0.3599129915237427
      ],
      "max": [
        0.991828978061676,
        1
      ],
      "type": "VEC2",
      "bufferView": 2,
      "byteOffset": 7040
    },
    {
      "name": "Knight__ncl1_29.002-Mesh_1_indices",
      "componentType": 5123,
      "count": 1308,
      "min": [
        0
      ],
      "max": [
        939
      ],
      "type": "SCALAR",
      "bufferView": 3,
      "byteOffset": 2388
    },
    {
      "name": "Knight__ncl1_29.002-Mesh_2_positions",
      "componentType": 5126,
      "count": 238,
      "min": [
        -0.7016819715499878,
        -0.0031469999812543392,
        -0.29609599709510803
      ],
      "max": [
        0.7048479914665222,
        0.7944369912147522,
        0.25481098890304565
      ],
      "type": "VEC3",
      "bufferView": 0,
      "byteOffset": 21840
    },
    {
      "name": "Knight__ncl1_29.002-Mesh_2_normals",
      "componentType": 5126,
      "count": 238,
      "min": [
        -0.9975321292877197,
        -0.9999959468841553,
        -0.9922701716423035
      ],
      "max": [
        0.9980297684669495,
        0.9960963129997253,
        0.9645205140113831
      ],
      "type": "VEC3",
      "bufferView": 1,
      "byteOffset": 21840
    },
    {
      "name": "Knight__ncl1_29.002-Mesh_2_texcoords",
      "componentType": 5126,
      "count": 238,
      "min": [
        0,
        1
      ],
      "max": [
        0,
        1
      ],
      "type": "VEC2",
      "bufferView": 2,
      "byteOffset": 14560
    },
    {
      "name": "Knight__ncl1_29.002-Mesh_2_indices",
      "componentType": 5123,
      "count": 366,
      "min": [
        0
      ],
      "max": [
        237
      ],
      "type": "SCALAR",
      "bufferView": 3,
      "byteOffset": 5004
    }
  ],
  "asset": {
    "generator": "obj2gltf",
    "version": "2.0"
  },
  "buffers": [
    {
      "name": "KnightCharacter",
      "byteLength": 71592,
      "uri": "data:application/octet-stream;base64,"
    }
  ],
  "bufferViews": [
    {
      "name": "bufferView_0",
      "buffer": 0,
      "byteLength": 24696,
      "byteOffset": 0,
      "byteStride": 12,
      "target": 34962
    },
    {
      "name": "bufferView_1",
      "buffer": 0,
      "byteLength": 24696,
      "byteOffset": 24696,
      "byteStride": 12,
      "target": 34962
    },
    {
      "name": "bufferView_2",
      "buffer": 0,
      "byteLength": 16464,
      "byteOffset": 49392,
      "byteStride": 8,
      "target": 34962
    },
    {
      "name": "bufferView_3",
      "buffer": 0,
      "byteLength": 5736,
      "byteOffset": 65856,
      "target": 34963
    }
  ],
  "materials": [
    {
      "name": "Armor",
      "pbrMetallicRoughness": {
        "baseColorFactor": [
          0.12186,
          0.12186,
          0.12186,
          1
        ],
        "metallicFactor": 0,
        "roughnessFactor": 0.903921569
      },
      "emissiveFactor": [
        0,
        0,
        0
      ],
      "alphaMode": "OPAQUE",
      "doubleSided": false
    },
    {
      "name": "Skin",
      "pbrMetallicRoughness": {
        "baseColorFactor": [
          0.59872,
          0.446157,
          0.25851,
          1
        ],
        "metallicFactor": 0,
        "roughnessFactor": 0.903921569
      },
      "emissiveFactor": [
        0,
        0,
        0
      ],
      "alphaMode": "OPAQUE",
      "doubleSided": false
    },
    {
      "name": "Boots",
      "pbrMetallicRoughness": {
        "baseColorFactor": [
          0.024851,
          0.010088,
          0.006324,
          1
        ],
        "metallicFactor": 0,
        "roughnessFactor": 0.903921569
      },
      "emissiveFactor": [
        0,
        0,
        0
      ],
      "alphaMode": "OPAQUE",
      "doubleSided": false
    }
  ],
  "meshes": [
    {
      "name": "Knight__ncl1_29.002-Mesh",
      "primitives": [
        {
          "attributes": {
            "POSITION": 0,
            "NORMAL": 1,
            "TEXCOORD_0": 2
          },
          "indices": 3,
          "material": 0,
          "mode": 4
        },
        {
          "attributes": {
            "POSITION": 4,
            "NORMAL": 5,
            "TEXCOORD_0": 6
          },
          "indices": 7,
          "material": 1,
          "mode": 4
        },
        {
          "attributes": {
            "POSITION": 8,
            "NORMAL": 9,
            "TEXCOORD_0": 10
          },
          "indices": 11,
          "material": 2,
          "mode": 4
        }
      ]
    }
  ],
  "nodes": [
    {
      "name": "Knight__ncl1_29.002",
      "mesh": 0
    }
  ],
  "scene": 0,
  "scenes": [
    {
      "nodes": [
        0
      ]
    }
  ]
}
