{
  "accessors": [
    {
      "name": "Cow_Cylinder-Mesh_0_positions",
      "componentType": 5126,
      "count": 722,
      "min": [
        -1.1102880239486694,
        0.300476998090744,
        -3.7204689979553223
      ],
      "max": [
        1.1490980386734009,
        5.079701900482178,
        5.345301151275635
      ],
      "type": "VEC3",
      "bufferView": 0,
      "byteOffset": 0
    },
    {
      "name": "Cow_Cylinder-Mesh_0_normals",
      "componentType": 5126,
      "count": 722,
      "min": [
        -0.9996078014373779,
        -0.9988641142845154,
        -0.9999032020568848
      ],
      "max": [
        0.9996078014373779,
        0.9845352172851562,
        0.9974668025970459
      ],
      "type": "VEC3",
      "bufferView": 1,
      "byteOffset": 0
    },
    {
      "name": "Cow_Cylinder-Mesh_0_indices",
      "componentType": 5123,
      "count": 1062,
      "min": [
        0
      ],
      "max": [
        721
      ],
      "type": "SCALAR",
      "bufferView": 2,
      "byteOffset": 0
    },
    {
      "name": "Cow_Cylinder-Mesh_1_positions",
      "componentType": 5126,
      "count": 820,
      "min": [
        -1.1178909540176392,
        -0.06814400106668472,
        -3.7766189575195312
      ],
      "max": [
        1.1178909540176392,
        4.999444961547852,
        5.329851150512695
      ],
      "type": "VEC3",
      "bufferView": 0,
      "byteOffset": 8664
    },
    {
      "name": "Cow_Cylinder-Mesh_1_normals",
      "componentType": 5126,
      "count": 820,
      "min": [
        -0.9987715482711792,
        -0.9999999403953552,
        -0.9999068975448608
      ],
      "max": [
        0.9983039498329163,
        0.9815291166305542,
        0.9990780353546143
      ],
      "type": "VEC3",
      "bufferView": 1,
      "byteOffset": 8664
    },
    {
      "name": "Cow_Cylinder-Mesh_1_indices",
      "componentType": 5123,
      "count": 1188,
      "min": [
        0
      ],
      "max": [
        819
      ],
      "type": "SCALAR",
      "bufferView": 2,
      "byteOffset": 2124
    },
    {
      "name": "Cow_Cylinder-Mesh_2_positions",
      "componentType": 5126,
      "count": 102,
      "min": [
        -0.6958770155906677,
        1.5792620182037354,
        -2.0800020694732666
      ],
      "max": [
        0.6965100169181824,
        3.8333559036254883,
        5.396210193634033
      ],
      "type": "VEC3",
      "bufferView": 0,
      "byteOffset": 18504
    },
    {
      "name": "Cow_Cylinder-Mesh_2_normals",
      "componentType": 5126,
      "count": 102,
      "min": [
        -0.9998562932014465,
        -0.9923710823059082,
        -0.9291093945503235
      ],
      "max": [
        0.9998562932014465,
        0.45881059765815735,
        0.9084538817405701
      ],
      "type": "VEC3",
      "bufferView": 1,
      "byteOffset": 18504
    },
    {
      "name": "Cow_Cylinder-Mesh_2_indices",
      "componentType": 5123,
      "count": 138,
      "min": [
        0
      ],
      "max": [
        101
      ],
      "type": "SCALAR",
      "bufferView": 2,
      "byteOffset": 4500
    }
  ],
  "asset": {
    "generator": "obj2gltf",
    "version": "2.0"
  },
  "buffers": [
    {
      "name": "Cow",
      "byteLength": 44232,
      "uri": "data:application/octet-stream;base64,"
    }
  ],
  "bufferViews": [
    {
      "name": "bufferView_0",
      "buffer": 0,
      "byteLength": 19728,
      "byteOffset": 0,
      "byteStride": 12,
      "target": 34962
    },
    {
      "name": "bufferView_1",
      "buffer": 0,
      "byteLength": 19728,
      "byteOffset": 19728,
      "byteStride": 12,
      "target": 34962
    },
    {
      "name": "bufferView_2",
      "buffer": 0,
      "byteLength": 4776,
      "byteOffset": 39456,
      "target": 34963
    }
  ],
  "materials": [
    {
      "name": "White",
      "pbrMetallicRoughness": {
        "baseColorFactor": [
          0.64,
          0.64,
          0.64,
          1
        ],
        "metallicFactor": 0,
        "roughnessFactor": 0.903921569
      },
      "emissiveFactor": [
        0,
        0,
        0
      ],
      "alphaMode": "OPAQUE",
      "doubleSided": false
    },
    {
      "name": "Black",
      "pbrMetallicRoughness": {
        "baseColorFactor": [
          0.023278,
          0.023278,
          0.023278,
          1
        ],
        "metallicFactor": 0,
        "roughnessFactor": 0.903921569
      },
      "emissiveFactor": [
        0,
        0,
        0
      ],
      "alphaMode": "OPAQUE",
      "doubleSided": false
    },
    {
      "name": "Pink",
      "pbrMetallicRoughness": {
        "baseColorFactor": [
          0.64,
          0.140839,
          0.173352,
          1
        ],
        "metallicFactor": 0,
        "roughnessFactor": 0.903921569
      },
      "emissiveFactor": [
        0,
        0,
        0
      ],
      "alphaMode": "OPAQUE",
      "doubleSided": false
    }
  ],
  "meshes": [
    {
      "name": "Cow_Cylinder-Mesh",
      "primitives": [
        {
          "attributes": {
            "POSITION": 0,
            "NORMAL": 1
          },
          "indices": 2,
          "material": 0,
          "mode": 4
        },
        {
          "attributes": {
            "POSITION": 3,
            "NORMAL": 4
          },
          "indices": 5,
          "material": 1,
          "mode": 4
        },
        {
          "attributes": {
            "POSITION": 6,
            "NORMAL": 7
          },
          "indices": 8,
          "material": 2,
          "mode": 4
        }
      ]
    }
  ],
  "nodes": [
    {
      "name": "Cow_Cylinder",
      "mesh": 0
    }
  ],
  "scene": 0,
  "scenes": [
    {
      "nodes": [
        0
      ]
    }
  ]
}
