{
  "accessors": [
    {
      "name": "Horse_Cylinder-Mesh_0_positions",
      "componentType": 5126,
      "count": 1052,
      "min": [
        -1.277271032333374,
        0.27660900354385376,
        -3.100851058959961
      ],
      "max": [
        1.283821940422058,
        6.923783779144287,
        5.050253868103027
      ],
      "type": "VEC3",
      "bufferView": 0,
      "byteOffset": 0
    },
    {
      "name": "Horse_Cylinder-Mesh_0_normals",
      "componentType": 5126,
      "count": 1052,
      "min": [
        -0.9985034465789795,
        -0.975284218788147,
        -0.999733030796051
      ],
      "max": [
        0.9985069632530212,
        0.965308427810669,
        0.9999468326568604
      ],
      "type": "VEC3",
      "bufferView": 1,
      "byteOffset": 0
    },
    {
      "name": "Horse_Cylinder-Mesh_0_indices",
      "componentType": 5123,
      "count": 1512,
      "min": [
        0
      ],
      "max": [
        1051
      ],
      "type": "SCALAR",
      "bufferView": 2,
      "byteOffset": 0
    },
    {
      "name": "Horse_Cylinder-Mesh_1_positions",
      "componentType": 5126,
      "count": 380,
      "min": [
        -1.1202629804611206,
        0.017885999754071236,
        -4.123727798461914
      ],
      "max": [
        1.1204229593276978,
        6.9150872230529785,
        5.116979122161865
      ],
      "type": "VEC3",
      "bufferView": 0,
      "byteOffset": 12624
    },
    {
      "name": "Horse_Cylinder-Mesh_1_normals",
      "componentType": 5126,
      "count": 380,
      "min": [
        -0.9990540742874146,
        -0.9999998807907104,
        -0.9999212026596069
      ],
      "max": [
        0.9987679719924927,
        0.9759038686752319,
        0.9746263027191162
      ],
      "type": "VEC3",
      "bufferView": 1,
      "byteOffset": 12624
    },
    {
      "name": "Horse_Cylinder-Mesh_1_indices",
      "componentType": 5123,
      "count": 558,
      "min": [
        0
      ],
      "max": [
        379
      ],
      "type": "SCALAR",
      "bufferView": 2,
      "byteOffset": 3024
    }
  ],
  "asset": {
    "generator": "obj2gltf",
    "version": "2.0"
  },
  "buffers": [
    {
      "name": "Horse",
      "byteLength": 38508,
      "uri": "data:application/octet-stream;base64,"
    }
  ],
  "bufferViews": [
    {
      "name": "bufferView_0",
      "buffer": 0,
      "byteLength": 17184,
      "byteOffset": 0,
      "byteStride": 12,
      "target": 34962
    },
    {
      "name": "bufferView_1",
      "buffer": 0,
      "byteLength": 17184,
      "byteOffset": 17184,
      "byteStride": 12,
      "target": 34962
    },
    {
      "name": "bufferView_2",
      "buffer": 0,
      "byteLength": 4140,
      "byteOffset": 34368,
      "target": 34963
    }
  ],
  "materials": [
    {
      "name": "Material.003",
      "pbrMetallicRoughness": {
        "baseColorFactor": [
          0.139718,
          0.059371,
          0.037332,
          1
        ],
        "metallicFactor": 0,
        "roughnessFactor": 0.903921569
      },
      "emissiveFactor": [
        0,
        0,
        0
      ],
      "alphaMode": "OPAQUE",
      "doubleSided": false
    },
    {
      "name": "Material.006",
      "pbrMetallicRoughness": {
        "baseColorFactor": [
          0.016303,
          0.016303,
          0.016303,
          1
        ],
        "metallicFactor": 0,
        "roughnessFactor": 0.903921569
      },
      "emissiveFactor": [
        0,
        0,
        0
      ],
      "alphaMode": "OPAQUE",
      "doubleSided": false
    }
  ],
  "meshes": [
    {
      "name": "Horse_Cylinder-Mesh",
      "primitives": [
        {
          "attributes": {
            "POSITION": 0,
            "NORMAL": 1
          },
          "indices": 2,
          "material": 0,
          "mode": 4
        },
        {
          "attributes": {
            "POSITION": 3,
            "NORMAL": 4
          },
          "indices": 5,
          "material": 1,
          "mode": 4
        }
      ]
    }
  ],
  "nodes": [
    {
      "name": "Horse_Cylinder",
      "mesh": 0
    }
  ],
  "scene": 0,
  "scenes": [
    {
      "nodes": [
        0
      ]
    }
  ]
}
