{
  "accessors": [
    {
      "name": "Llama_Cylinder-Mesh_0_positions",
      "componentType": 5126,
      "count": 750,
      "min": [
        -0.7922850251197815,
        1.135925054550171,
        -2.0203659534454346
      ],
      "max": [
        0.7759810090065002,
        5.745144844055176,
        2.3412981033325195
      ],
      "type": "VEC3",
      "bufferView": 0,
      "byteOffset": 0
    },
    {
      "name": "Llama_Cylinder-Mesh_0_normals",
      "componentType": 5126,
      "count": 750,
      "min": [
        -0.9982612133026123,
        -0.9833630323410034,
        -0.9890279173851013
      ],
      "max": [
        0.9982668161392212,
        0.9827638268470764,
        0.995468258857727
      ],
      "type": "VEC3",
      "bufferView": 1,
      "byteOffset": 0
    },
    {
      "name": "Llama_Cylinder-Mesh_0_indices",
      "componentType": 5123,
      "count": 1098,
      "min": [
        0
      ],
      "max": [
        749
      ],
      "type": "SCALAR",
      "bufferView": 2,
      "byteOffset": 0
    },
    {
      "name": "Llama_Cylinder-Mesh_1_positions",
      "componentType": 5126,
      "count": 348,
      "min": [
        -0.7075510025024414,
        0.12606999278068542,
        -1.5926810503005981
      ],
      "max": [
        0.7075510025024414,
        5.603414058685303,
        2.837498903274536
      ],
      "type": "VEC3",
      "bufferView": 0,
      "byteOffset": 9000
    },
    {
      "name": "Llama_Cylinder-Mesh_1_normals",
      "componentType": 5126,
      "count": 348,
      "min": [
        -0.9984132051467896,
        -0.9368281960487366,
        -0.9958069324493408
      ],
      "max": [
        0.9984132051467896,
        0.8093422651290894,
        0.9999950528144836
      ],
      "type": "VEC3",
      "bufferView": 1,
      "byteOffset": 9000
    },
    {
      "name": "Llama_Cylinder-Mesh_1_indices",
      "componentType": 5123,
      "count": 504,
      "min": [
        0
      ],
      "max": [
        347
      ],
      "type": "SCALAR",
      "bufferView": 2,
      "byteOffset": 2196
    },
    {
      "name": "Llama_Cylinder-Mesh_2_positions",
      "componentType": 5126,
      "count": 264,
      "min": [
        -0.7072950005531311,
        -0.017501000314950943,
        -1.4480340480804443
      ],
      "max": [
        0.7077140212059021,
        5.840484142303467,
        2.8869500160217285
      ],
      "type": "VEC3",
      "bufferView": 0,
      "byteOffset": 13176
    },
    {
      "name": "Llama_Cylinder-Mesh_2_normals",
      "componentType": 5126,
      "count": 264,
      "min": [
        -0.9988518953323364,
        -0.9999997615814209,
        -0.9999799728393555
      ],
      "max": [
        0.9994116425514221,
        0.9992733001708984,
        0.9798058867454529
      ],
      "type": "VEC3",
      "bufferView": 1,
      "byteOffset": 13176
    },
    {
      "name": "Llama_Cylinder-Mesh_2_indices",
      "componentType": 5123,
      "count": 384,
      "min": [
        0
      ],
      "max": [
        263
      ],
      "type": "SCALAR",
      "bufferView": 2,
      "byteOffset": 3204
    }
  ],
  "asset": {
    "generator": "obj2gltf",
    "version": "2.0"
  },
  "buffers": [
    {
      "name": "Llama",
      "byteLength": 36660,
      "uri": "data:application/octet-stream;base64,"
    }
  ],
  "bufferViews": [
    {
      "name": "bufferView_0",
      "buffer": 0,
      "byteLength": 16344,
      "byteOffset": 0,
      "byteStride": 12,
      "target": 34962
    },
    {
      "name": "bufferView_1",
      "buffer": 0,
      "byteLength": 16344,
      "byteOffset": 16344,
      "byteStride": 12,
      "target": 34962
    },
    {
      "name": "bufferView_2",
      "buffer": 0,
      "byteLength": 3972,
      "byteOffset": 32688,
      "target": 34963
    }
  ],
  "materials": [
    {
      "name": "Brown",
      "pbrMetallicRoughness": {
        "baseColorFactor": [
          0.152961,
          0.076246,
          0.041016,
          1
        ],
        "metallicFactor": 0,
        "roughnessFactor": 0.903921569
      },
      "emissiveFactor": [
        0,
        0,
        0
      ],
      "alphaMode": "OPAQUE",
      "doubleSided": false
    },
    {
      "name": "White",
      "pbrMetallicRoughness": {
        "baseColorFactor": [
          0.64,
          0.64,
          0.64,
          1
        ],
        "metallicFactor": 0,
        "roughnessFactor": 0.903921569
      },
      "emissiveFactor": [
        0,
        0,
        0
      ],
      "alphaMode": "OPAQUE",
      "doubleSided": false
    },
    {
      "name": "Grey",
      "pbrMetallicRoughness": {
        "baseColorFactor": [
          0.161517,
          0.161517,
          0.161517,
          1
        ],
        "metallicFactor": 0,
        "roughnessFactor": 0.903921569
      },
      "emissiveFactor": [
        0,
        0,
        0
      ],
      "alphaMode": "OPAQUE",
      "doubleSided": false
    }
  ],
  "meshes": [
    {
      "name": "Llama_Cylinder-Mesh",
      "primitives": [
        {
          "attributes": {
            "POSITION": 0,
            "NORMAL": 1
          },
          "indices": 2,
          "material": 0,
          "mode": 4
        },
        {
          "attributes": {
            "POSITION": 3,
            "NORMAL": 4
          },
          "indices": 5,
          "material": 1,
          "mode": 4
        },
        {
          "attributes": {
            "POSITION": 6,
            "NORMAL": 7
          },
          "indices": 8,
          "material": 2,
          "mode": 4
        }
      ]
    }
  ],
  "nodes": [
    {
      "name": "Llama_Cylinder",
      "mesh": 0
    }
  ],
  "scene": 0,
  "scenes": [
    {
      "nodes": [
        0
      ]
    }
  ]
}
