{
  "accessors": [
    {
      "name": "Pig_Cylinder-Mesh_0_positions",
      "componentType": 5126,
      "count": 1078,
      "min": [
        -1.6525280475616455,
        0.16916699707508087,
        -4.54203987121582
      ],
      "max": [
        1.651100993156433,
        4.570779800415039,
        5.228424072265625
      ],
      "type": "VEC3",
      "bufferView": 0,
      "byteOffset": 0
    },
    {
      "name": "Pig_Cylinder-Mesh_0_normals",
      "componentType": 5126,
      "count": 1078,
      "min": [
        -0.9996605515480042,
        -0.9998845458030701,
        -0.996397852897644
      ],
      "max": [
        0.9998877048492432,
        0.9951119422912598,
        0.9999634623527527
      ],
      "type": "VEC3",
      "bufferView": 1,
      "byteOffset": 0
    },
    {
      "name": "Pig_Cylinder-Mesh_0_indices",
      "componentType": 5123,
      "count": 1566,
      "min": [
        0
      ],
      "max": [
        1077
      ],
      "type": "SCALAR",
      "bufferView": 2,
      "byteOffset": 0
    },
    {
      "name": "Pig_Cylinder-Mesh_1_positions",
      "componentType": 5126,
      "count": 80,
      "min": [
        -1.3905349969863892,
        -0.004261000081896782,
        -3.211836099624634
      ],
      "max": [
        1.3914380073547363,
        0.1854189932346344,
        2.2098519802093506
      ],
      "type": "VEC3",
      "bufferView": 0,
      "byteOffset": 12936
    },
    {
      "name": "Pig_Cylinder-Mesh_1_normals",
      "componentType": 5126,
      "count": 80,
      "min": [
        -0.9957454204559326,
        -0.9999428987503052,
        -0.8961180448532104
      ],
      "max": [
        0.9954610466957092,
        0.2886042594909668,
        0.9653919339179993
      ],
      "type": "VEC3",
      "bufferView": 1,
      "byteOffset": 12936
    },
    {
      "name": "Pig_Cylinder-Mesh_1_indices",
      "componentType": 5123,
      "count": 120,
      "min": [
        0
      ],
      "max": [
        79
      ],
      "type": "SCALAR",
      "bufferView": 2,
      "byteOffset": 3132
    }
  ],
  "asset": {
    "generator": "obj2gltf",
    "version": "2.0"
  },
  "buffers": [
    {
      "name": "Pig",
      "byteLength": 31164,
      "uri": "data:application/octet-stream;base64,"
    }
  ],
  "bufferViews": [
    {
      "name": "bufferView_0",
      "buffer": 0,
      "byteLength": 13896,
      "byteOffset": 0,
      "byteStride": 12,
      "target": 34962
    },
    {
      "name": "bufferView_1",
      "buffer": 0,
      "byteLength": 13896,
      "byteOffset": 13896,
      "byteStride": 12,
      "target": 34962
    },
    {
      "name": "bufferView_2",
      "buffer": 0,
      "byteLength": 3372,
      "byteOffset": 27792,
      "target": 34963
    }
  ],
  "materials": [
    {
      "name": "Material.003",
      "pbrMetallicRoughness": {
        "baseColorFactor": [
          0.549348,
          0.28512,
          0.29699,
          1
        ],
        "metallicFactor": 0,
        "roughnessFactor": 0.903921569
      },
      "emissiveFactor": [
        0,
        0,
        0
      ],
      "alphaMode": "OPAQUE",
      "doubleSided": false
    },
    {
      "name": "Material",
      "pbrMetallicRoughness": {
        "baseColorFactor": [
          0.161519,
          0.069714,
          0.038927,
          1
        ],
        "metallicFactor": 0,
        "roughnessFactor": 0.903921569
      },
      "emissiveFactor": [
        0,
        0,
        0
      ],
      "alphaMode": "OPAQUE",
      "doubleSided": false
    }
  ],
  "meshes": [
    {
      "name": "Pig_Cylinder-Mesh",
      "primitives": [
        {
          "attributes": {
            "POSITION": 0,
            "NORMAL": 1
          },
          "indices": 2,
          "material": 0,
          "mode": 4
        },
        {
          "attributes": {
            "POSITION": 3,
            "NORMAL": 4
          },
          "indices": 5,
          "material": 1,
          "mode": 4
        }
      ]
    }
  ],
  "nodes": [
    {
      "name": "Pig_Cylinder",
      "mesh": 0
    }
  ],
  "scene": 0,
  "scenes": [
    {
      "nodes": [
        0
      ]
    }
  ]
}
