{
  "accessors": [
    {
      "name": "Pug_Cylinder-Mesh_0_positions",
      "componentType": 5126,
      "count": 896,
      "min": [
        -0.7246090173721313,
        0.046884000301361084,
        -1.449144959449768
      ],
      "max": [
        0.7224220037460327,
        2.6345810890197754,
        1.823104977607727
      ],
      "type": "VEC3",
      "bufferView": 0,
      "byteOffset": 0
    },
    {
      "name": "Pug_Cylinder-Mesh_0_normals",
      "componentType": 5126,
      "count": 896,
      "min": [
        -0.9999973177909851,
        -0.9938828945159912,
        -0.9848669171333313
      ],
      "max": [
        0.9999979734420776,
        0.9851536154747009,
        0.9993575215339661
      ],
      "type": "VEC3",
      "bufferView": 1,
      "byteOffset": 0
    },
    {
      "name": "Pug_Cylinder-Mesh_0_indices",
      "componentType": 5123,
      "count": 1344,
      "min": [
        0
      ],
      "max": [
        895
      ],
      "type": "SCALAR",
      "bufferView": 2,
      "byteOffset": 0
    },
    {
      "name": "Pug_Cylinder-Mesh_1_positions",
      "componentType": 5126,
      "count": 388,
      "min": [
        -0.7101280093193054,
        -0.01806499995291233,
        -0.9264450073242188
      ],
      "max": [
        0.7108680009841919,
        2.5674729347229004,
        2.0513060092926025
      ],
      "type": "VEC3",
      "bufferView": 0,
      "byteOffset": 10752
    },
    {
      "name": "Pug_Cylinder-Mesh_1_normals",
      "componentType": 5126,
      "count": 388,
      "min": [
        -0.9999642372131348,
        -0.9998664855957031,
        -0.8759234547615051
      ],
      "max": [
        0.9999684691429138,
        0.9633337259292603,
        0.9960117340087891
      ],
      "type": "VEC3",
      "bufferView": 1,
      "byteOffset": 10752
    },
    {
      "name": "Pug_Cylinder-Mesh_1_indices",
      "componentType": 5123,
      "count": 588,
      "min": [
        0
      ],
      "max": [
        387
      ],
      "type": "SCALAR",
      "bufferView": 2,
      "byteOffset": 2688
    }
  ],
  "asset": {
    "generator": "obj2gltf",
    "version": "2.0"
  },
  "buffers": [
    {
      "name": "Pug",
      "byteLength": 34680,
      "uri": "data:application/octet-stream;base64,"
    }
  ],
  "bufferViews": [
    {
      "name": "bufferView_0",
      "buffer": 0,
      "byteLength": 15408,
      "byteOffset": 0,
      "byteStride": 12,
      "target": 34962
    },
    {
      "name": "bufferView_1",
      "buffer": 0,
      "byteLength": 15408,
      "byteOffset": 15408,
      "byteStride": 12,
      "target": 34962
    },
    {
      "name": "bufferView_2",
      "buffer": 0,
      "byteLength": 3864,
      "byteOffset": 30816,
      "target": 34963
    }
  ],
  "materials": [
    {
      "name": "Beige",
      "pbrMetallicRoughness": {
        "baseColorFactor": [
          0.639282,
          0.483062,
          0.269731,
          1
        ],
        "metallicFactor": 0,
        "roughnessFactor": 0.903921569
      },
      "emissiveFactor": [
        0,
        0,
        0
      ],
      "alphaMode": "OPAQUE",
      "doubleSided": false
    },
    {
      "name": "Brown",
      "pbrMetallicRoughness": {
        "baseColorFactor": [
          0.031744,
          0.010969,
          0.007216,
          1
        ],
        "metallicFactor": 0,
        "roughnessFactor": 0.903921569
      },
      "emissiveFactor": [
        0,
        0,
        0
      ],
      "alphaMode": "OPAQUE",
      "doubleSided": false
    }
  ],
  "meshes": [
    {
      "name": "Pug_Cylinder-Mesh",
      "primitives": [
        {
          "attributes": {
            "POSITION": 0,
            "NORMAL": 1
          },
          "indices": 2,
          "material": 0,
          "mode": 4
        },
        {
          "attributes": {
            "POSITION": 3,
            "NORMAL": 4
          },
          "indices": 5,
          "material": 1,
          "mode": 4
        }
      ]
    }
  ],
  "nodes": [
    {
      "name": "Pug_Cylinder",
      "mesh": 0
    }
  ],
  "scene": 0,
  "scenes": [
    {
      "nodes": [
        0
      ]
    }
  ]
}
