{
  "accessors": [
    {
      "name": "Sheep_Cylinder-Mesh_0_positions",
      "componentType": 5126,
      "count": 634,
      "min": [
        -1.1124939918518066,
        0.9827489852905273,
        -2.408742904663086
      ],
      "max": [
        1.112542986869812,
        4.328680992126465,
        2.537619113922119
      ],
      "type": "VEC3",
      "bufferView": 0,
      "byteOffset": 0
    },
    {
      "name": "Sheep_Cylinder-Mesh_0_normals",
      "componentType": 5126,
      "count": 634,
      "min": [
        -0.9977307915687561,
        -0.9759917259216309,
        -0.9861571192741394
      ],
      "max": [
        0.9977307915687561,
        0.9812610745429993,
        0.9986733794212341
      ],
      "type": "VEC3",
      "bufferView": 1,
      "byteOffset": 0
    },
    {
      "name": "Sheep_Cylinder-Mesh_0_indices",
      "componentType": 5123,
      "count": 930,
      "min": [
        0
      ],
      "max": [
        633
      ],
      "type": "SCALAR",
      "bufferView": 2,
      "byteOffset": 0
    },
    {
      "name": "Sheep_Cylinder-Mesh_1_positions",
      "componentType": 5126,
      "count": 630,
      "min": [
        -0.9942020177841187,
        -0.015033000148832798,
        -1.8958569765090942
      ],
      "max": [
        0.9942020177841187,
        4.349553108215332,
        3.5106608867645264
      ],
      "type": "VEC3",
      "bufferView": 0,
      "byteOffset": 7608
    },
    {
      "name": "Sheep_Cylinder-Mesh_1_normals",
      "componentType": 5126,
      "count": 630,
      "min": [
        -0.9968419075012207,
        -0.9999995827674866,
        -0.9998205304145813
      ],
      "max": [
        0.9968961477279663,
        0.9993782043457031,
        0.9999992847442627
      ],
      "type": "VEC3",
      "bufferView": 1,
      "byteOffset": 7608
    },
    {
      "name": "Sheep_Cylinder-Mesh_1_indices",
      "componentType": 5123,
      "count": 906,
      "min": [
        0
      ],
      "max": [
        629
      ],
      "type": "SCALAR",
      "bufferView": 2,
      "byteOffset": 1860
    }
  ],
  "asset": {
    "generator": "obj2gltf",
    "version": "2.0"
  },
  "buffers": [
    {
      "name": "Sheep",
      "byteLength": 34008,
      "uri": "data:application/octet-stream;base64,"
    }
  ],
  "bufferViews": [
    {
      "name": "bufferView_0",
      "buffer": 0,
      "byteLength": 15168,
      "byteOffset": 0,
      "byteStride": 12,
      "target": 34962
    },
    {
      "name": "bufferView_1",
      "buffer": 0,
      "byteLength": 15168,
      "byteOffset": 15168,
      "byteStride": 12,
      "target": 34962
    },
    {
      "name": "bufferView_2",
      "buffer": 0,
      "byteLength": 3672,
      "byteOffset": 30336,
      "target": 34963
    }
  ],
  "materials": [
    {
      "name": "White",
      "pbrMetallicRoughness": {
        "baseColorFactor": [
          0.64,
          0.64,
          0.64,
          1
        ],
        "metallicFactor": 0,
        "roughnessFactor": 0.903921569
      },
      "emissiveFactor": [
        0,
        0,
        0
      ],
      "alphaMode": "OPAQUE",
      "doubleSided": false
    },
    {
      "name": "Black",
      "pbrMetallicRoughness": {
        "baseColorFactor": [
          0.029926,
          0.029926,
          0.029926,
          1
        ],
        "metallicFactor": 0,
        "roughnessFactor": 0.903921569
      },
      "emissiveFactor": [
        0,
        0,
        0
      ],
      "alphaMode": "OPAQUE",
      "doubleSided": false
    }
  ],
  "meshes": [
    {
      "name": "Sheep_Cylinder-Mesh",
      "primitives": [
        {
          "attributes": {
            "POSITION": 0,
            "NORMAL": 1
          },
          "indices": 2,
          "material": 0,
          "mode": 4
        },
        {
          "attributes": {
            "POSITION": 3,
            "NORMAL": 4
          },
          "indices": 5,
          "material": 1,
          "mode": 4
        }
      ]
    }
  ],
  "nodes": [
    {
      "name": "Sheep_Cylinder",
      "mesh": 0
    }
  ],
  "scene": 0,
  "scenes": [
    {
      "nodes": [
        0
      ]
    }
  ]
}
