{
  "accessors": [
    {
      "name": "Zebra_Cylinder-Mesh_0_positions",
      "componentType": 5126,
      "count": 1192,
      "min": [
        -1.2743949890136719,
        0.21424399316310883,
        -3.147197961807251
      ],
      "max": [
        1.2850970029830933,
        6.65859317779541,
        5.004251003265381
      ],
      "type": "VEC3",
      "bufferView": 0,
      "byteOffset": 0
    },
    {
      "name": "Zebra_Cylinder-Mesh_0_normals",
      "componentType": 5126,
      "count": 1192,
      "min": [
        -0.998392641544342,
        -0.9755648970603943,
        -0.9917229413986206
      ],
      "max": [
        0.998392641544342,
        0.9838343858718872,
        0.9999998211860657
      ],
      "type": "VEC3",
      "bufferView": 1,
      "byteOffset": 0
    },
    {
      "name": "Zebra_Cylinder-Mesh_0_indices",
      "componentType": 5123,
      "count": 1746,
      "min": [
        0
      ],
      "max": [
        1191
      ],
      "type": "SCALAR",
      "bufferView": 2,
      "byteOffset": 0
    },
    {
      "name": "Zebra_Cylinder-Mesh_1_positions",
      "componentType": 5126,
      "count": 1572,
      "min": [
        -1.2743949890136719,
        -0.04632699862122536,
        -4.162682056427002
      ],
      "max": [
        1.2850970029830933,
        7.027644157409668,
        5.0709757804870605
      ],
      "type": "VEC3",
      "bufferView": 0,
      "byteOffset": 14304
    },
    {
      "name": "Zebra_Cylinder-Mesh_1_normals",
      "componentType": 5126,
      "count": 1572,
      "min": [
        -0.998458206653595,
        -1,
        -0.9999865293502808
      ],
      "max": [
        0.9991875886917114,
        0.9800838828086853,
        0.9999998211860657
      ],
      "type": "VEC3",
      "bufferView": 1,
      "byteOffset": 14304
    },
    {
      "name": "Zebra_Cylinder-Mesh_1_indices",
      "componentType": 5123,
      "count": 2316,
      "min": [
        0
      ],
      "max": [
        1571
      ],
      "type": "SCALAR",
      "bufferView": 2,
      "byteOffset": 3492
    }
  ],
  "asset": {
    "generator": "obj2gltf",
    "version": "2.0"
  },
  "buffers": [
    {
      "name": "Zebra",
      "byteLength": 74460,
      "uri": "data:application/octet-stream;base64,"
    }
  ],
  "bufferViews": [
    {
      "name": "bufferView_0",
      "buffer": 0,
      "byteLength": 33168,
      "byteOffset": 0,
      "byteStride": 12,
      "target": 34962
    },
    {
      "name": "bufferView_1",
      "buffer": 0,
      "byteLength": 33168,
      "byteOffset": 33168,
      "byteStride": 12,
      "target": 34962
    },
    {
      "name": "bufferView_2",
      "buffer": 0,
      "byteLength": 8124,
      "byteOffset": 66336,
      "target": 34963
    }
  ],
  "materials": [
    {
      "name": "White",
      "pbrMetallicRoughness": {
        "baseColorFactor": [
          0.64,
          0.64,
          0.64,
          1
        ],
        "metallicFactor": 0,
        "roughnessFactor": 0.903921569
      },
      "emissiveFactor": [
        0,
        0,
        0
      ],
      "alphaMode": "OPAQUE",
      "doubleSided": false
    },
    {
      "name": "Black",
      "pbrMetallicRoughness": {
        "baseColorFactor": [
          0.023278,
          0.023278,
          0.023278,
          1
        ],
        "metallicFactor": 0,
        "roughnessFactor": 0.903921569
      },
      "emissiveFactor": [
        0,
        0,
        0
      ],
      "alphaMode": "OPAQUE",
      "doubleSided": false
    }
  ],
  "meshes": [
    {
      "name": "Zebra_Cylinder-Mesh",
      "primitives": [
        {
          "attributes": {
            "POSITION": 0,
            "NORMAL": 1
          },
          "indices": 2,
          "material": 0,
          "mode": 4
        },
        {
          "attributes": {
            "POSITION": 3,
            "NORMAL": 4
          },
          "indices": 5,
          "material": 1,
          "mode": 4
        }
      ]
    }
  ],
  "nodes": [
    {
      "name": "Zebra_Cylinder",
      "mesh": 0
    }
  ],
  "scene": 0,
  "scenes": [
    {
      "nodes": [
        0
      ]
    }
  ]
}
